<?xml version="1.0" standalone="no"?>
<!DOCTYPE svg PUBLIC "-//W3C//DTD SVG 20010904//EN"
 "http://www.w3.org/TR/2001/REC-SVG-20010904/DTD/svg10.dtd">
<svg version="1.0" xmlns="http://www.w3.org/2000/svg"
 width="40.000000pt" height="40.000000pt" viewBox="0 0 40.000000 40.000000"
 preserveAspectRatio="xMidYMid meet">

<g transform="translate(0.000000,40.000000) scale(0.100000,-0.100000)"
fill="#000000" stroke="none">
<path d="M124 306 c-3 -8 -18 -16 -35 -20 -36 -7 -69 -57 -69 -104 0 -50 54
-102 107 -102 97 0 147 116 78 182 -14 13 -25 31 -25 41 0 21 -48 24 -56 3z
m64 -51 c3 -3 0 -11 -6 -17 -15 -15 -16 -95 0 -104 17 -11 -20 -34 -55 -34
-34 0 -87 48 -87 79 0 61 56 106 113 90 16 -5 32 -11 35 -14z m27 -85 c-4 -17
-11 -28 -16 -24 -11 6 -12 67 -2 78 13 12 25 -24 18 -54z"/>
<path d="M233 283 c-28 -11 -11 -21 27 -16 34 5 43 2 70 -25 32 -32 37 -56 19
-95 -16 -36 -51 -51 -98 -43 -40 6 -57 -6 -25 -18 69 -27 154 28 154 99 0 69
-83 125 -147 98z"/>
</g>
</svg>
